#!OML:ASF H:\Terrain\Patient Classification 1\PLAYGROUND\JustinFriday\JustinFriday.ASF
:FULLY-SPECIFIED
:DEGREES
585
root 13.3645 22.2152 8.82791 88.1458 -1.00887 -178.8
lowerback 54.1239 1.17592 12.3327
upperback 4.1377 5.67131 1.86637
thorax -15.5916 0.21562 -5.7656
lowerneck 15.7404 -2.67138 1.99986
upperneck 2.9269 -4.10663 9.88767
head -1.60684 -2.80935 3.17398
rclavicle -2.38542e-014 -5.56597e-015
rhumerus 83.7302 -12.9847 -144.588
rradius 26.6351
rwrist 79.7419
rhand 37.8818 24.8239
rfingers 7.12502
rthumb 60.6173 11.7084
lclavicle -2.38542e-014 -5.56597e-015
lhumerus 78.756 -14.77 56.9131
lradius 26.6708
lwrist -11.033
lhand -20.3353 -2.96267
lfingers 7.12502
lthumb 6.01614 26.9319
rfemur -85.8326 -12.882 36.789
rtibia 133.08
rfoot -28.845 -9.69272
rtoes 25.6499
lfemur -89.7366 19.3257 -17.7887
ltibia 124.219
lfoot -32.0638 -20.3106
ltoes -26.4311
586
root 13.3815 22.1907 8.96084 89.3362 -1.3798 -178.24
lowerback 53.4941 1.2384 11.8291
upperback 4.17529 5.4673 1.99173
thorax -15.5739 0.195696 -5.33757
lowerneck 15.636 -2.60273 1.63701
upperneck 2.92086 -4.07493 10.1256
head -1.58509 -2.79833 3.31826
rclavicle 4.13472e-014 1.03368e-014
rhumerus 83.5606 -12.7786 -143.713
rradius 26.993
rwrist 79.0703
rhand 37.8649 25.4785
rfingers 7.12502
rthumb 60.6029 12.3471
lclavicle 4.13472e-014 1.03368e-014
lhumerus 78.6649 -14.5596 57.2539
lradius 27.0936
lwrist -11.3629
lhand -20.3125 -2.82077
lfingers 7.12502
lthumb 6.03814 27.0732
rfemur -86.7284 -12.7591 36.3649
rtibia 131.955
rfoot -28.5582 -9.92542
rtoes 24.9195
lfemur -90.0189 18.1233 -18.4151
ltibia 122.968
lfoot -32.7492 -18.2541
ltoes -28.9164
587
root 13.3804 22.177 9.14607 89.4548 -1.37551 -178.253
lowerback 54.0362 1.2405 11.869
upperback 4.21029 5.47501 2.05517
thorax -15.598 0.150775 -5.25724
lowerneck 15.584 -2.68489 1.51075
upperneck 3.05422 -4.23016 10.0893
head -1.52171 -2.8713 3.33184
rclavicle -4.77083e-015 4.77083e-014
rhumerus 83.3251 -12.7648 -142.861
rradius 27.3305
rwrist 78.3729
rhand 37.6729 26.1893
rfingers 7.12502
rthumb 60.4397 12.879
lclavicle -4.77083e-015 4.77083e-014
lhumerus 78.4738 -14.4656 57.7105
lradius 27.5781
lwrist -11.7832
lhand -20.282 -2.72844
lfingers 7.12502
lthumb 6.06756 27.1647
rfemur -85.5325 -13.0143 35.9213
rtibia 130.703
rfoot -28.9603 -9.59617
rtoes 24.4137
lfemur -88.656 17.5885 -18.3361
ltibia 121.565
lfoot -33.0141 -17.5191
ltoes -29.4557
588
root 13.389 22.1469 9.31863 90.2464 -1.42729 -178.037
lowerback 53.9651 1.11163 11.8452
upperback 4.21515 5.2685 1.95175
thorax -15.5992 0.0692882 -5.26794
lowerneck 15.3775 -2.69509 1.63888
upperneck 3.17664 -4.24556 9.97921
head -1.44615 -2.86499 3.25915
rclavicle -1.59028e-014 -2.8625e-014
rhumerus 83.0988 -12.5965 -142.53
rradius 27.7247
rwrist 77.8497
rhand 37.4528 26.9206
rfingers 7.12502
rthumb 60.2522 13.4079
lclavicle -1.59028e-014 -2.8625e-014
lhumerus 78.3303 -14.253 57.6877
lradius 28.1171
lwrist -12.0628
lhand -20.2474 -2.61613
lfingers 7.12502
lthumb 6.10093 27.276
rfemur -85.1905 -12.6453 35.5908
rtibia 129.272
rfoot -28.8426 -9.76021
rtoes 23.5196
lfemur -88.4628 16.7198 -18.379
ltibia 120.184
lfoot -32.343 -18.2819
ltoes -27.6932
589
root 13.3973 22.1131 9.48363 91.4302 -1.09075 -177.736
lowerback 53.3394 1.08096 12.0594
upperback 4.40153 5.3067 2.19034
thorax -15.2839 0.102608 -5.12225
lowerneck 14.7617 -2.69088 1.34593
upperneck 3.38139 -4.30903 9.98028
head -1.26255 -2.8629 3.28782
rclavicle 1.59028e-015 2.54444e-014
rhumerus 82.9689 -12.2342 -141.333
rradius 28.2421
rwrist 76.8001
rhand 37.4476 27.6513
rfingers 7.12502
rthumb 60.2478 14.1338
lclavicle 1.59028e-015 2.54444e-014
lhumerus 78.3899 -13.9501 58.241
lradius 28.6447
lwrist -12.3707
lhand -19.995 -2.37288
lfingers 7.12502
lthumb 6.34465 27.5121
rfemur -85.4066 -11.678 35.6677
rtibia 127.822
rfoot -28.7241 -9.89503
rtoes 23.2826
lfemur -88.877 15.9969 -18.1551
ltibia 118.817
lfoot -31.7021 -19.1539
ltoes -25.14
590
root 13.3949 22.0914 9.66875 92.075 -0.951386 -177.849
lowerback 53.3035 1.082 12.254
upperback 4.66715 5.2931 2.23452
thorax -14.9363 0.0742081 -5.13411
lowerneck 14.2181 -2.70874 1.26379
upperneck 3.63317 -4.3722 9.80659
head -1.08204 -2.8575 3.21883
rclavicle -5.48646e-014 -1.66979e-014
rhumerus 82.8552 -11.8774 -140.163
rradius 28.6841
rwrist 75.7296
rhand 37.3337 28.2635
rfingers 7.12502
rthumb 60.1506 14.6423
lclavicle -5.48646e-014 -1.66979e-014
lhumerus 78.5118 -13.539 58.5463
lradius 29.1709
lwrist -12.8768
lhand -20.1232 -2.19278
lfingers 7.12502
lthumb 6.22088 27.6959
rfemur -84.8144 -10.9102 35.3175
rtibia 126.268
rfoot -28.9958 -9.64647
rtoes 23.1252
lfemur -88.1313 15.6267 -18.0919
ltibia 117.237
lfoot -31.906 -18.7131
ltoes -23.8143
591
root 13.3921 22.0705 9.86572 92.5677 -1.46747 -178.056
lowerback 53.5628 1.21339 11.9095
upperback 4.88198 5.12766 2.07854
thorax -14.7595 -0.00458512 -5.06309
lowerneck 13.9598 -2.75428 1.44256
upperneck 3.74731 -4.41624 9.5526
head -1.00349 -2.85525 3.088
rclavicle -1.59028e-014 -3.18055e-015
rhumerus 82.7883 -11.6267 -138.991
rradius 29.0071
rwrist 74.4386
rhand 36.992 28.7139
rfingers 7.12502
rthumb 59.8584 14.7858
lclavicle -1.59028e-014 -3.18055e-015
lhumerus 78.7616 -13.1457 58.5598
lradius 29.6017
lwrist -13.1407
lhand -20.27 -2.20638
lfingers 7.12502
lthumb 6.07913 27.6864
rfemur -84.1416 -10.6405 34.3318
rtibia 124.721
rfoot -29.1308 -9.45004
rtoes 22.4075
lfemur -86.9881 15.035 -18.6516
ltibia 115.488
lfoot -32.244 -17.6115
ltoes -23.9775
592
root 13.3939 22.0446 10.0498 93.6944 -1.99879 -178.016
lowerback 53.0412 1.37422 11.4496
upperback 5.10826 4.95773 1.99379
thorax -14.4929 -0.0243811 -4.89512
lowerneck 13.5243 -2.77475 1.40337
upperneck 4.04783 -4.50236 9.56363
head -0.823954 -2.87915 3.0801
rclavicle 7.15625e-015 2.3059e-014
rhumerus 82.8329 -11.303 -137.937
rradius 29.2696
rwrist 73.0812
rhand 36.4686 29.1011
rfingers 7.12502
rthumb 59.409 14.715
lclavicle 7.15625e-015 2.3059e-014
lhumerus 78.9734 -12.8463 58.8492
lradius 30.024
lwrist -13.1018
lhand -19.8328 -2.06908
lfingers 7.12502
lthumb 6.50121 27.8111
rfemur -84.4514 -10.3363 33.5823
rtibia 123.224
rfoot -28.7697 -9.52217
rtoes 21.9848
lfemur -86.9104 14.1881 -19.3571
ltibia 113.842
lfoot -32.2536 -16.5922
ltoes -24.7231
593
root 13.3955 22.021 10.2649 94.4397 -2.17216 -178.081
lowerback 53.2399 1.39677 11.3667
upperback 5.18735 4.88016 1.94297
thorax -14.4373 -0.074086 -4.86685
lowerneck 12.963 -2.81616 1.20994
upperneck 4.60657 -4.67357 9.52529
head -0.533419 -2.93741 3.07714
rclavicle -3.33958e-014 -2.8625e-014
rhumerus 82.9812 -10.9878 -137.736
rradius 29.353
rwrist 73.0128
rhand 35.9183 29.5977
rfingers 7.12502
rthumb 58.9342 14.7452
lclavicle -3.33958e-014 -2.8625e-014
lhumerus 78.9158 -12.6212 59.4133
lradius 30.4174
lwrist -13.9618
lhand -20.1717 -1.99779
lfingers 7.12502
lthumb 6.1741 27.8922
rfemur -83.9149 -9.98888 33.0518
rtibia 121.35
rfoot -28.5663 -9.38195
rtoes 21.9382
lfemur -86.1811 13.6382 -19.6251
ltibia 112.076
lfoot -32.3519 -15.8462
ltoes -25.2124
594
root 13.3915 22.0032 10.4711 95.5039 -1.72145 -178.069
lowerback 52.9522 1.28047 11.7942
upperback 5.31651 4.91606 2.01021
thorax -14.1924 -0.0699573 -4.99641
lowerneck 12.8073 -2.87893 1.16473
upperneck 4.67244 -4.75835 9.32032
head -0.484518 -2.96281 3.01157
rclavicle -9.46215e-014 -3.33958e-014
rhumerus 83.0643 -10.6632 -137.503
rradius 29.6011
rwrist 73.0628
rhand 35.4674 30.2105
rfingers 7.12502
rthumb 58.5437 14.9871
lclavicle -9.46215e-014 -3.33958e-014
lhumerus 78.8885 -12.3424 59.8957
lradius 30.8768
lwrist -14.9959
lhand -20.8128 -2.19574
lfingers 7.12502
lthumb 5.55512 27.7114
rfemur -83.8421 -9.38871 33.4129
rtibia 119.529
rfoot -28.2975 -10.0386
rtoes 19.8854
lfemur -86.0497 13.3024 -19.3422
ltibia 110.34
lfoot -32.2671 -15.5498
ltoes -25.7538
595
root 13.3903 21.9897 10.6745 96.6783 -1.27176 -178.06
lowerback 52.2954 1.29799 12.1704
upperback 5.67957 4.99707 2.15367
thorax -13.6269 -0.0282373 -5.04482
lowerneck 12.9196 -2.94125 1.10958
upperneck 4.17708 -4.75168 9.19016
head -0.668108 -2.95513 2.99174
rclavicle 7.95139e-015 1.35174e-014
rhumerus 80.307 -8.60785 -124.377
rradius 27.7961
rwrist 44.2598
rhand 17.9206 -1.60995
rfingers 7.12502
rthumb 42.5933 -25.9981
lclavicle 7.95139e-015 1.35174e-014
lhumerus 79.1584 -11.9633 60.6134
lradius 31.4438
lwrist -15.3558
lhand -20.4273 -2.33091
lfingers 7.12502
lthumb 5.92726 27.5662
rfemur -83.7526 -8.67255 33.6988
rtibia 117.656
rfoot -28.1684 -10.3213
rtoes 18.7817
lfemur -85.9938 13.0362 -19.0561
ltibia 108.523
lfoot -32.396 -14.978
ltoes -26.6478
